<?xml version="1.0" encoding="utf-8"?>
<!-- Generator: Adobe Illustrator 16.0.0, SVG Export Plug-In . SVG Version: 6.00 Build 0)  -->
<!DOCTYPE svg PUBLIC "-//W3C//DTD SVG 1.1//EN" "http://www.w3.org/Graphics/SVG/1.1/DTD/svg11.dtd">
<svg version="1.1" id="Layer_1" xmlns="http://www.w3.org/2000/svg" xmlns:xlink="http://www.w3.org/1999/xlink" x="0px" y="0px"
	 width="100px" height="100px" viewBox="0 0 100 100" style="enable-background:new 0 0 100 100;" xml:space="preserve">
<g>
	<path style="fill:#329AC9;" d="M100,94c0,3.313-2.687,6-6,6H6c-3.313,0-6-2.687-6-6V6c0-3.313,2.687-6,6-6h88c3.313,0,6,2.687,6,6
		V94z"/>
	<path style="fill:#FFFFFF;" d="M87,48.992v-0.071c0-4.831-3.516-8.845-8.455-8.845c-4.936,0-8.383,3.942-8.383,8.773v0.072
		c0,4.831,3.516,8.844,8.455,8.844C83.555,57.765,87,53.822,87,48.992 M64.977,39.478L61.9,42.483
		c-1.771-1.464-3.709-2.407-6.182-2.407c-4.76,0-8.205,3.906-8.205,8.773v0.072c0,4.866,3.445,8.844,8.205,8.844
		c2.561,0,4.346-0.881,6.111-2.336l2.911,2.848c-2.36,2.169-5.056,3.501-9.165,3.501c-7.248,0-12.645-5.648-12.645-12.786v-0.071
		c0-7.07,5.295-12.857,12.822-12.857C60.018,36.064,62.705,37.456,64.977,39.478 M40.32,61.352H22.348v-3.444l8.559-7.282
		c3.41-2.876,4.656-4.474,4.656-6.712c0-2.451-1.742-3.872-4.016-3.872s-3.837,1.243-5.754,3.731l-3.09-2.417
		c2.38-3.341,4.723-5.221,9.163-5.221c4.868,0,8.206,2.983,8.206,7.423v0.07c0,3.906-2.06,6.04-6.464,9.625l-5.117,4.264H40.32
		V61.352z M85.41,37.86c-4.76-15.548-19.222-26.856-36.326-26.856c-20.98,0-37.99,17.008-37.99,37.989
		c0,20.979,17.01,37.985,37.99,37.985c17.188,0,31.706-11.42,36.389-27.086c-1.963,1.188-4.311,1.887-6.928,1.887
		c-7.637,0-12.963-5.789-12.963-12.786v-0.071c0-6.999,5.398-12.857,13.035-12.857C81.184,36.064,83.479,36.728,85.41,37.86"/>
</g>
</svg>
